{
  "accessors": [
    {
      "bufferView": 2,
      "componentType": 5126,
      "count": 65532,
      "max": [
        17.42999267578125,
        1.9382209777832031,
        12.24672794342041
      ],
      "min": [
        -12.228999137878418,
        -35.708278656005859,
        -21.904090881347656
      ],
      "type": "VEC3"
    },
    {
      "bufferView": 2,
      "byteOffset": 786384,
      "componentType": 5126,
      "count": 65532,
      "max": [
        0.99995255470275879,
        1,
        0.99999791383743286
      ],
      "min": [
        -0.99996381998062134,
        -1,
        -0.99998760223388672
      ],
      "type": "VEC3"
    },
    {
      "bufferView": 3,
      "componentType": 5126,
      "count": 65532,
      "max": [
        1,
        1,
        0.99999886751174927,
        1
      ],
      "min": [
        -0.99999988079071045,
        -1,
        -0.99685931205749512,
        -1
      ],
      "type": "VEC4"
    },
    {
      "bufferView": 3,
      "byteOffset": 1048512,
      "componentType": 5126,
      "count": 65532,
      "max": [
        0.99607843160629272,
        0.99607843160629272,
        0.99607843160629272,
        1
      ],
      "min": [
        0.0078431377187371254,
        0.015686275437474251,
        0,
        1
      ],
      "type": "VEC4"
    },
    {
      "bufferView": 1,
      "componentType": 5126,
      "count": 65532,
      "max": [
        0.99975597858428955,
        0.99877899885177612
      ],
      "min": [
        0.00024399999529123306,
        0.00024399999529123306
      ],
      "type": "VEC2"
    },
    {
      "bufferView": 0,
      "componentType": 5125,
      "count": 295890,
      "max": [
        65531
      ],
      "min": [
        0
      ],
      "type": "SCALAR"
    },
    {
      "bufferView": 2,
      "byteOffset": 1572768,
      "componentType": 5126,
      "count": 65532,
      "max": [
        17.42999267578125,
        1.9382209777832031,
        12.24672794342041
      ],
      "min": [
        -12.228999137878418,
        -35.708278656005859,
        -21.904090881347656
      ],
      "type": "VEC3"
    },
    {
      "bufferView": 2,
      "byteOffset": 2359152,
      "componentType": 5126,
      "count": 65532,
      "max": [
        0.99999505281448364,
        0.98737788200378418,
        0.99998503923416138
      ],
      "min": [
        -0.99998986721038818,
        -1,
        -0.99998557567596436
      ],
      "type": "VEC3"
    },
    {
      "bufferView": 3,
      "byteOffset": 2097024,
      "componentType": 5126,
      "count": 65532,
      "max": [
        1,
        1,
        0.99999904632568359,
        -1
      ],
      "min": [
        -1,
        -0.99999988079071045,
        -0.99999934434890747,
        -1
      ],
      "type": "VEC4"
    },
    {
      "bufferView": 3,
      "byteOffset": 3145536,
      "componentType": 5126,
      "count": 65532,
      "max": [
        0.99607843160629272,
        0.99607843160629272,
        0.99607843160629272,
        1
      ],
      "min": [
        0.0078431377187371254,
        0.015686275437474251,
        0,
        1
      ],
      "type": "VEC4"
    },
    {
      "bufferView": 1,
      "byteOffset": 524256,
      "componentType": 5126,
      "count": 65532,
      "max": [
        0.99975597858428955,
        0.99975597858428955
      ],
      "min": [
        0.00024399999529123306,
        0.00024399999529123306
      ],
      "type": "VEC2"
    },
    {
      "bufferView": 0,
      "byteOffset": 1183560,
      "componentType": 5125,
      "count": 267351,
      "max": [
        65531
      ],
      "min": [
        0
      ],
      "type": "SCALAR"
    },
    {
      "bufferView": 2,
      "byteOffset": 3145536,
      "componentType": 5126,
      "count": 13471,
      "max": [
        6.9942846298217773,
        -14.474750518798828,
        2.6110382080078125
      ],
      "min": [
        -6.5689725875854492,
        -34.221469879150391,
        -16.924633026123047
      ],
      "type": "VEC3"
    },
    {
      "bufferView": 2,
      "byteOffset": 3307188,
      "componentType": 5126,
      "count": 13471,
      "max": [
        0.9997209906578064,
        0.99754619598388672,
        0.99980640411376953
      ],
      "min": [
        -0.99959093332290649,
        -0.99999892711639404,
        -0.99993300437927246
      ],
      "type": "VEC3"
    },
    {
      "bufferView": 3,
      "byteOffset": 4194048,
      "componentType": 5126,
      "count": 13471,
      "max": [
        1,
        0.99999815225601196,
        0.99902248382568359,
        1
      ],
      "min": [
        -0.99999314546585083,
        -0.99999624490737915,
        -0.99995821714401245,
        -1
      ],
      "type": "VEC4"
    },
    {
      "bufferView": 3,
      "byteOffset": 4409584,
      "componentType": 5126,
      "count": 13471,
      "max": [
        0.9529411792755127,
        0.93333333730697632,
        0.9686274528503418,
        1
      ],
      "min": [
        0.0078431377187371254,
        0.011764706112444401,
        0,
        1
      ],
      "type": "VEC4"
    },
    {
      "bufferView": 1,
      "byteOffset": 1048512,
      "componentType": 5126,
      "count": 13471,
      "max": [
        0.99975597858428955,
        0.98302698135375977
      ],
      "min": [
        0.00024399999529123306,
        0.00024399999529123306
      ],
      "type": "VEC2"
    },
    {
      "bufferView": 0,
      "byteOffset": 2252964,
      "componentType": 5125,
      "count": 36759,
      "max": [
        13470
      ],
      "min": [
        0
      ],
      "type": "SCALAR"
    }
  ],
  "asset": {
    "extras": {
      "author": "Mistral_Yu (https://sketchfab.com/FFT_kedar)",
      "license": "CC-BY-4.0 (http://creativecommons.org/licenses/by/4.0/)",
      "source": "https://sketchfab.com/3d-models/773f8cba54eb4106a15c5abd26317b52",
      "title": "オルガ先生像"
    },
    "generator": "Sketchfab-4.97.2",
    "version": "2.0"
  },
  "bufferViews": [
    {
      "buffer": 0,
      "byteLength": 2400000,
      "byteOffset": 0,
      "name": "floatBufferViews",
      "target": 34963
    },
    {
      "buffer": 0,
      "byteLength": 1156280,
      "byteOffset": 2400000,
      "byteStride": 8,
      "name": "floatBufferViews",
      "target": 34962
    },
    {
      "buffer": 0,
      "byteLength": 3468840,
      "byteOffset": 3556280,
      "byteStride": 12,
      "name": "floatBufferViews",
      "target": 34962
    },
    {
      "buffer": 0,
      "byteLength": 4625120,
      "byteOffset": 7025120,
      "byteStride": 16,
      "name": "floatBufferViews",
      "target": 34962
    }
  ],
  "buffers": [
    {
      "byteLength": 11650240,
      "uri": "scene.bin"
    }
  ],
  "extensionsUsed": [
    "KHR_materials_unlit"
  ],
  "images": [
    {
      "uri": "textures/Olga_Material_u1_v1_baseColor.jpeg"
    }
  ],
  "materials": [
    {
      "doubleSided": true,
      "emissiveFactor": [
        0,
        0,
        0
      ],
      "extensions": {
        "KHR_materials_unlit": {}
      },
      "name": "Olga_Material_u1_v1",
      "pbrMetallicRoughness": {
        "baseColorFactor": [
          1,
          1,
          1,
          1
        ],
        "baseColorTexture": {
          "index": 0,
          "texCoord": 0
        },
        "metallicFactor": 0,
        "roughnessFactor": 1
      }
    }
  ],
  "meshes": [
    {
      "primitives": [
        {
          "attributes": {
            "COLOR_0": 3,
            "NORMAL": 1,
            "POSITION": 0,
            "TANGENT": 2,
            "TEXCOORD_0": 4
          },
          "indices": 5,
          "material": 0,
          "mode": 4
        }
      ]
    },
    {
      "primitives": [
        {
          "attributes": {
            "COLOR_0": 9,
            "NORMAL": 7,
            "POSITION": 6,
            "TANGENT": 8,
            "TEXCOORD_0": 10
          },
          "indices": 11,
          "material": 0,
          "mode": 4
        }
      ]
    },
    {
      "primitives": [
        {
          "attributes": {
            "COLOR_0": 15,
            "NORMAL": 13,
            "POSITION": 12,
            "TANGENT": 14,
            "TEXCOORD_0": 16
          },
          "indices": 17,
          "material": 0,
          "mode": 4
        }
      ]
    }
  ],
  "nodes": [
    {
      "children": [
        1
      ],
      "name": "RootNode (gltf orientation matrix)",
      "rotation": [
        -0.70710678118654746,
        -0,
        -0,
        0.70710678118654757
      ]
    },
    {
      "children": [
        2
      ],
      "matrix": [
        0.96179676055908203,
        -0.27160397171974182,
        0.034326471388339996,
        0,
        0.035667236894369125,
        0,
        -0.99936372041702271,
        0,
        0.27143114805221558,
        0.96240907907485962,
        0.0096873631700873375,
        0,
        2.0122442245483398,
        -11.531556129455566,
        -21.745454788208008,
        1
      ],
      "name": "RootNode (model correction matrix)"
    },
    {
      "children": [
        3,
        4,
        5
      ],
      "name": "Olga.obj.cleaner.materialmerger.gles"
    },
    {
      "mesh": 0,
      "name": ""
    },
    {
      "mesh": 1,
      "name": ""
    },
    {
      "mesh": 2,
      "name": ""
    }
  ],
  "samplers": [
    {
      "magFilter": 9729,
      "minFilter": 9987,
      "wrapS": 10497,
      "wrapT": 10497
    }
  ],
  "scene": 0,
  "scenes": [
    {
      "name": "OSG_Scene",
      "nodes": [
        0
      ]
    }
  ],
  "textures": [
    {
      "sampler": 0,
      "source": 0
    }
  ]
}

